# xmcd
#
# Track frame offsets:
#  150
#  21790
#  41683
#  83994
#  98050
#  122722
#  144607
#
# Disc length: 2237 seconds
#
# Revision: 0
# Processed by: cddbd v1.5.2PL0 Copyright (c) Steve Scherf et al.
# Submitted via: AltoMP3_Maker 3.0
#
DISCID=5708bb07
DTITLE=Count Basie and Oscar Peterson - The Timekeepers
DYEAR=1900
DGENRE=
TTITLE0=I'm Confessin' (That I Love You)
TTITLE1=Soft Winds
TTITLE2=Rent Party
TTITLE3=(Back Home Again In) Indiana
TTITLE4=Hey, Raymond
TTITLE5=After You've Gone
TTITLE6=That's the One
EXTD=
EXTT0=
EXTT1=
EXTT2=
EXTT3=
EXTT4=
EXTT5=
EXTT6=
PLAYORDER=
